HIERARCHY
ROOT Hips
{
    OFFSET 0.0 0.0 0.0
    CHANNELS 6 Xposition Yposition Zposition Zrotation Xrotation Yrotation
    JOINT LeftHipJoint
    {
        OFFSET 0.1 0.0 0.0
        CHANNELS 3 Zrotation Xrotation Yrotation
        JOINT LeftUpLeg
        {
            OFFSET 128.12625544199227 0.0 0.0
            CHANNELS 3 Zrotation Xrotation Yrotation
            JOINT LeftLeg
            {
                OFFSET 0.0 0.0 -436.0018232145886
                CHANNELS 3 Zrotation Xrotation Yrotation
                JOINT LeftFoot
                {
                    OFFSET 0.0 0.0 -389.0138088731734
                    CHANNELS 3 Zrotation Xrotation Yrotation
                    End Site
                    {
                        OFFSET 0.0 -0.1 0.0
                    }
                }
            }
        }
    }
    JOINT LowerBack
    {
        OFFSET 0.0 0.0 0.1
        CHANNELS 3 Zrotation Xrotation Yrotation
        JOINT Spine
        {
            OFFSET 0.0 0.0 228.11837324545036
            CHANNELS 3 Zrotation Xrotation Yrotation
            JOINT Spine1
            {
                OFFSET 0.0 0.0 246.67514899423182
                CHANNELS 3 Zrotation Xrotation Yrotation
                JOINT LeftShoulder
                {
                    OFFSET 0.1 0.0 0.0
                    CHANNELS 3 Zrotation Xrotation Yrotation
                    JOINT LeftArm
                    {
                        OFFSET 146.52395017703867 0.0 0.0
                        CHANNELS 3 Zrotation Xrotation Yrotation
                        JOINT LeftForeArm
                        {
                            OFFSET 281.9857458883191 0.0 0.0
                            CHANNELS 3 Zrotation Xrotation Yrotation
                            JOINT LeftHand
                            {
                                OFFSET 244.5826441246545 0.0 0.0
                                CHANNELS 3 Zrotation Xrotation Yrotation
                                End Site
                                {
                                    OFFSET 0.1 0.0 0.0
                                }
                            }
                        }
                    }
                }
                JOINT Neck
                {
                    OFFSET 0.0 0.0 0.1
                    CHANNELS 3 Zrotation Xrotation Yrotation
                    JOINT Neck1
                    {
                        OFFSET 0.0 0.0 104.42614435103883
                        CHANNELS 3 Zrotation Xrotation Yrotation
                        End Site
                        {
                            OFFSET 0.0 0.0 107.4239698625697
                        }
                    }
                }
                JOINT RightShoulder
                {
                    OFFSET -0.1 0.0 0.0
                    CHANNELS 3 Zrotation Xrotation Yrotation
                    JOINT RightArm
                    {
                        OFFSET -146.52395017703867 0.0 0.0
                        CHANNELS 3 Zrotation Xrotation Yrotation
                        JOINT RightForeArm
                        {
                            OFFSET -281.9857458883191 0.0 0.0
                            CHANNELS 3 Zrotation Xrotation Yrotation
                            JOINT RightHand
                            {
                                OFFSET -244.5826441246545 0.0 0.0
                                CHANNELS 3 Zrotation Xrotation Yrotation
                                End Site
                                {
                                    OFFSET -0.1 0.0 0.0
                                }
                            }
                        }
                    }
                }
            }
        }
    }
    JOINT RightHipJoint
    {
        OFFSET -0.1 0.0 0.0
        CHANNELS 3 Zrotation Xrotation Yrotation
        JOINT RightUpLeg
        {
            OFFSET -128.12625544199227 0.0 0.0
            CHANNELS 3 Zrotation Xrotation Yrotation
            JOINT RightLeg
            {
                OFFSET 0.0 0.0 -436.0018232145886
                CHANNELS 3 Zrotation Xrotation Yrotation
                JOINT RightFoot
                {
                    OFFSET 0.0 0.0 -389.0138088731734
                    CHANNELS 3 Zrotation Xrotation Yrotation
                    End Site
                    {
                        OFFSET 0.0 -0.1 0.0
                    }
                }
            }
        }
    }
}
MOTION
Frames: 8
Frame Time: 0.03333333333333333
0.0 0.0 836.4528000309624 29.719171824053806 -19.08778998931894 9.169669519893892 0.0 0.0 0.0 0.46652761843796126 8.441895905212977 -3.9891836023528526 -0.32071449585620754 21.36047815450289 -1.8913699379724869 0.0 0.0 0.0 0.0 0.0 0.0 0.7877522766590151 14.082778036883148 -2.3718264698778238 -2.879975888370203 4.274163957611511e-16 -1.1823404701745575e-15 -1.3793457181406746e-33 -1.9878466759146977e-16 -7.951386703658791e-16 -82.36458330579364 13.802708724579178 54.915225074669735 -107.22010149318577 0.0 -0.0 0.0 0.0 -1.5902773407317584e-15 -1.3793457181406746e-33 -1.9878466759146977e-16 -7.951386703658791e-16 -7.379780271067316 5.799095512245924 -15.637034314754121 -1.3793457181406746e-33 -1.9878466759146977e-16 -7.951386703658791e-16 15.179809751452574 -38.745590738613885 -71.43284896504407 144.07806100676527 -7.563890195668417e-15 -2.4519615859537847e-15 0.0 0.0 0.0 0.0 0.0 0.0 0.6990413944839532 12.556037609131646 -12.333228085689187 -2.4854784337907843 15.121547197267967 6.0819577473929325 0.0 0.0 0.0
0.0 0.0 836.4528000309624 29.65078846898079 -18.90217667874073 9.28527584381205 0.0 0.0 0.0 0.4668746825606401 8.216648041861893 -4.221696019931125 -0.37262802458687644 21.143769894242755 -1.7513137871070226 0.0 0.0 0.0 0.0 0.0 0.0 0.807615830608634 14.036264816821419 -2.345331538415797 -2.907957578855397 4.27705094377551e-16 -1.1822360656914237e-15 0.0 0.0 -1.987846675914698e-16 -82.4590539873441 13.899832132416059 54.86887726040744 -107.05412022732972 -2.4474268923555112e-15 -1.4011733056341207e-14 0.0 0.0 -1.5902773407317584e-15 0.0 0.0 -1.987846675914698e-16 -7.365220640501452 5.973087381007536 -15.876587577664807 0.0 0.0 -1.987846675914698e-16 14.995419383119073 -38.78057980694615 -71.47245961204952 144.1579682459155 -3.4704688500502015e-15 5.563141226716619e-15 -3.180554681463516e-15 1.5902773407317582e-15 -6.361109362927032e-15 0.0 0.0 0.0 0.7136055210537995 12.460826556821845 -12.445088725694182 -2.4427930797328825 14.840639530164475 5.923409267221956 0.0 0.0 0.0
0.0 0.0 836.4528000309624 29.67399515486591 -18.768361968146383 9.407219262258625 0.0 0.0 0.0 0.4672025570675128 8.031419569143496 -4.4110795545607955 -0.4147015551646321 21.070790035022412 -1.7754345807160794 0.0 0.0 -3.975693351829396e-16 0.0 0.0 0.0 0.82426620532532 13.991666262485134 -2.31953312330749 -2.9285351958041574 -3.822005738953691e-16 -6.063185583642606e-16 3.1805546814635164e-15 -1.987846675914698e-16 -9.939233379573488e-16 -82.69858437648462 13.966997228579565 54.90983806880226 -106.83443124489172 0.0 -0.0 0.0 0.0 0.0 3.1805546814635164e-15 -1.987846675914698e-16 -9.939233379573488e-16 -7.361567959571071 6.138992483103395 -16.190286456629128 3.1805546814635164e-15 -1.987846675914698e-16 -9.939233379573488e-16 14.963782282181267 -38.64254301751407 -71.36563542132504 144.23027347448476 -5.1735089238468874e-15 -1.5037719489981317e-14 0.0 0.0 0.0 0.0 0.0 0.0 0.7321297067230936 12.484371315222509 -12.610678068551497 -2.450628303683966 14.750886104683333 5.871333151903495 0.0 0.0 -1.1927080055488188e-15
0.0 0.0 836.4528000309624 29.696299212568423 -18.669826046911975 9.528724588554137 0.0 0.0 0.0 0.46215874109349175 7.8267329626462105 -4.5800021118827035 -0.459461232412219 21.028302753545933 -1.7168894354232123 0.0 0.0 0.0 0.0 0.0 0.0 0.8342624950556519 13.945964040336499 -2.3197226048487556 -2.9976441050335714 2.247141086942304e-16 -9.883837894054553e-16 0.0 0.0 1.987846675914698e-16 -82.72340148337281 13.920030384238071 54.945798415990296 -106.76342932478042 -1.145267989594253e-14 5.858227242154053e-16 0.0 0.0 0.0 0.0 0.0 1.987846675914698e-16 -7.423448889043378 6.312656955205416 -16.392967417921056 0.0 0.0 1.987846675914698e-16 14.864761008335048 -38.640414728534715 -71.36899407023542 144.17625638802596 -4.539593126577983e-15 -1.467287439164456e-15 0.0 0.0 0.0 0.0 0.0 0.0 0.7381257373676418 12.394896433614068 -12.734421150865824 -2.4487622219491816 14.628528957743374 5.861120915075673 0.0 0.0 0.0
0.0 0.0 836.4528000309624 29.622063117842725 -18.60474091858721 9.62392112122518 0.0 0.0 -7.951386703658791e-16 0.46677876258913714 7.669016024097723 -4.688647775766944 -0.4582022986468433 20.896467419978336 -1.7360869669979009 0.0 0.0 -3.975693351829396e-16 0.0 0.0 -7.951386703658791e-16 0.8605835171112958 13.952126439194696 -2.3118249011038787 -2.9943866020204415 -3.974336074306253e-16 -1.0387683210618641e-17 0.0 0.0 -7.951386703658792e-16 -82.75414661135537 13.827505625011836 54.98532524125928 -106.6022963134613 0.0 -0.0 0.0 0.0 0.0 0.0 0.0 -7.951386703658792e-16 -7.461420287950084 6.452300806539034 -16.625077476508434 0.0 0.0 -7.951386703658792e-16 14.94790829682376 -38.63829942024036 -71.23374424488696 144.16984353509415 2.5827890264365134e-15 7.520222826222702e-15 0.0 0.0 0.0 0.0 0.0 -7.951386703658791e-16 0.75735309152179 12.335893211098528 -12.841892081060863 -2.4508518781373425 14.637782658505872 5.834733343063677 -1.3793457181406746e-33 -1.9878466759146977e-16 -7.951386703658791e-16
0.0 0.0 836.4528000309624 29.5354279906522 -18.593798155688955 9.74224268237774 -1.3793457181406746e-33 -1.9878466759146977e-16 -7.951386703658791e-16 0.47938689803405315 7.687882423371192 -4.857727691218768 -0.4829731773891513 20.62258097168404 -1.634281825428858 0.0 0.0 0.0 -1.3793457181406746e-33 -1.9878466759146977e-16 -7.951386703658791e-16 0.8792153842001996 13.913249593399525 -2.3360896935278284 -3.0143891207546347 4.1311737371137345e-16 -5.856906251944643e-16 0.0 0.0 1.987846675914698e-16 -82.68995513375376 13.761093173821818 55.04168320343095 -106.50313635477038 5.096967297987903e-15 -3.805868716910747e-15 0.0 0.0 -1.5902773407317584e-15 0.0 0.0 1.987846675914698e-16 -7.295496475220602 6.70169718952862 -16.809905348305815 0.0 0.0 1.987846675914698e-16 15.218755550935182 -38.548985247218795 -71.07375265098744 144.06905276600062 -6.050957935482683e-15 -1.9620449511000276e-15 0.0 0.0 0.0 -1.3793457181406746e-33 -1.9878466759146977e-16 -7.951386703658791e-16 0.7746199949346457 12.31356326746771 -12.922347346142143 -2.425105585395145 14.500081487756164 5.716310257870327 0.0 0.0 -1.987846675914698e-16
0.0 0.0 836.4528000309624 29.55755182067255 -18.48125558202575 9.880218752731013 0.0 0.0 0.0 0.4870551033014616 7.562786756469142 -5.008280052294242 -0.49310119877118835 20.51874325941515 -1.6519007979609124 0.0 0.0 -3.975693351829396e-16 0.0 0.0 0.0 0.9038746415239683 13.849949019606095 -2.38160020187099 -3.104609071614728 4.0819339075752317e-16 -3.866534731480955e-16 0.0 0.0 -1.987846675914698e-16 -82.77322999256971 13.828053322104811 55.016386102344626 -106.39672882159391 -1.2828310221403362e-15 8.904031065920105e-15 0.0 0.0 1.5902773407317584e-15 0.0 0.0 -1.987846675914698e-16 -7.393511296298161 6.88213311999271 -16.95196477127117 0.0 0.0 -1.987846675914698e-16 15.513043311682198 -38.476574703119276 -70.83797795240613 144.10888367940808 -1.0658782004715966e-15 -7.031610346901831e-15 0.0 0.0 0.0 0.0 0.0 0.0 0.7938229948177047 12.21993593387381 -13.081196727853497 -2.4345571572856946 14.491789407776663 5.709337632920536 0.0 -1.5902773407317584e-15 0.0
0.0 0.0 836.4528000309624 29.531140682063686 -18.41610913614701 10.091777818081136 0.0 0.0 0.0 0.5049648131594062 7.504533394456414 -5.294737860259688 -0.5371622596382913 20.46677779143877 -1.6004397547999871 0.0 0.0 0.0 0.0 0.0 0.0 0.9389867747379133 13.77274033929337 -2.4961087328621554 -3.19418444877184 1.5730386392635105e-15 6.404448114037124e-16 0.0 0.0 -1.987846675914698e-16 -82.7275173735939 13.730824463608343 55.0307859814719 -106.29231426896274 -8.90519627074859e-15 -1.2747172367554122e-15 0.0 0.0 -1.5902773407317584e-15 0.0 0.0 -1.987846675914698e-16 -7.4439763173268645 7.155625663311693 -17.095750410822426 0.0 0.0 -1.987846675914698e-16 15.884239731974612 -38.41708444484563 -70.64413293583377 144.09611789154727 -3.1952845643483533e-15 -2.109518713434215e-14 0.0 0.0 0.0 0.0 0.0 0.0 0.8279897045919851 12.19898115638238 -13.329920238057815 -2.4392083195009007 14.395943685751284 5.715485428777676 0.0 0.0 0.0
